<?xml version="1.0" encoding="UTF-8"?>
<svg width="151px" height="51px" viewBox="0 0 151 51" version="1.1" xmlns="http://www.w3.org/2000/svg" xmlns:xlink="http://www.w3.org/1999/xlink">
    <!-- Generator: Sketch 61 (89581) - https://sketch.com -->
    <title>logo</title>
    <desc>Created with Sketch.</desc>
    <g id="logo" stroke="none" stroke-width="1" fill="none" fill-rule="evenodd">
        <g id="noun_drip_3020736" transform="translate(9.100000, 7.800000)" fill="#2A2F36" fill-rule="nonzero">
            <path d="M29.5362076,14.2021656 C28.9905392,10.1647744 26.4772214,5.53970165 22.0486027,0.434501232 C21.8091271,0.158558079 21.4619294,0 21.096498,0 C20.7312346,0 20.3838689,0.158474052 20.1444773,0.434417205 C15.7275383,5.52541714 13.2155649,10.1395665 12.6608217,14.1700674 C9.26085586,14.7906875 6.33437957,15.7785875 4.15321867,17.0470521 C0.725103945,19.0407498 0.00558469364,21.2146004 0.00558469364,22.6871655 C0.00558469364,25.367444 2.33942181,27.7869882 6.57713224,29.5002053 C10.4532765,31.0670481 15.5797356,31.9300847 21.0122194,31.9300847 C26.4447032,31.9300847 31.5711623,31.0670481 35.4473065,29.5002053 C39.685101,27.7869882 42.0188541,25.367444 42.0188541,22.6871655 C42.0188541,18.8541268 37.2632881,15.6434728 29.5362076,14.2021656 Z M28.9462572,20.7246416 C28.9937322,20.7457323 29.0407031,20.7668229 29.0866656,20.7879976 C29.1054035,20.7966524 29.1234692,20.8052231 29.141871,20.8138778 C29.1786747,20.8311873 29.2152262,20.8484967 29.2510215,20.8658062 C29.2710198,20.8755533 29.290682,20.8852163 29.3103442,20.8949634 C29.3438708,20.9116007 29.3771453,20.9282379 29.4098317,20.9449592 C29.4290737,20.9547063 29.4481478,20.9645374 29.4670537,20.9744525 C29.4998241,20.9914259 29.5318382,21.0084833 29.5635162,21.0255407 C29.5809097,21.0348676 29.5985553,21.0443626 29.6156967,21.0536895 C29.6498955,21.0725115 29.683338,21.0912494 29.7162765,21.1100714 C29.7296367,21.1176337 29.743333,21.1252802 29.7565252,21.1328425 C29.8482821,21.1858633 29.9354177,21.2389681 30.0180158,21.2920728 C30.0304517,21.3001394 30.0423834,21.3080379 30.0547353,21.3161044 C30.0830523,21.3346743 30.1111172,21.3530761 30.1383418,21.371646 C30.1523742,21.381141 30.1659865,21.39072 30.1797668,21.400215 C30.2044706,21.4173564 30.2287543,21.4344138 30.2524498,21.4514712 C30.2662301,21.4613863 30.2797584,21.4712174 30.2932027,21.4812166 C30.3162259,21.4981059 30.338745,21.5150793 30.3609281,21.5319686 C30.373448,21.5415476 30.386136,21.5512107 30.3983199,21.5607057 C30.4212591,21.5786874 30.4436102,21.596669 30.4656251,21.6145667 C30.4757083,21.6228853 30.4861276,21.6311199 30.4960427,21.6393545 C30.5238555,21.6625458 30.550744,21.6856531 30.5768763,21.7085924 C30.5801533,21.7114493 30.5836824,21.7143062 30.5868754,21.7172471 C30.6164528,21.7435474 30.6447697,21.7696797 30.6721624,21.7958119 C30.6784643,21.8017778 30.6842622,21.8077437 30.6903961,21.8137096 C30.7107305,21.8333718 30.7306448,21.853118 30.7498029,21.8726122 C30.7580375,21.8811829 30.7658519,21.8895856 30.7739185,21.8980722 C30.7900516,21.9151296 30.8060166,21.932187 30.8212254,21.9490763 C30.829292,21.9580672 30.8371065,21.967058 30.8449209,21.9760489 C30.8592895,21.9925181 30.8732379,22.0089032 30.8865981,22.0252044 C30.8939084,22.0340272 30.9012187,22.042934 30.9081929,22.0516727 C30.9215531,22.0685621 30.9344092,22.0851993 30.9467611,22.1020046 C30.9525589,22.1099031 30.9586929,22.1178016 30.9643226,22.1256161 C30.9784391,22.1451943 30.9916313,22.1646884 31.0044033,22.1839305 C31.0074282,22.188636 31.0108733,22.1932575 31.0138143,22.1978789 C31.0296113,22.2224147 31.0442319,22.2466143 31.0577601,22.2706459 C31.0589365,22.2726625 31.0598608,22.2747632 31.0610372,22.2768639 C31.0729689,22.2982066 31.0839764,22.3193813 31.0941436,22.3403879 C31.0973366,22.346942 31.1001095,22.3534121 31.1031345,22.3600501 C31.1106969,22.3763513 31.1178391,22.3927365 31.1243092,22.4087855 C31.1273341,22.4163479 31.130107,22.4239103 31.1329639,22.4313887 C31.1385937,22.4465135 31.1438033,22.4613862 31.1485088,22.4761748 C31.1508615,22.4837372 31.1532143,22.4912996 31.155399,22.498862 C31.1596003,22.5137347 31.1632975,22.5284393 31.1665745,22.5429759 C31.168171,22.5498661 31.1697675,22.5567563 31.1711119,22.5634784 C31.174305,22.5795275 31.1765737,22.5954085 31.1785903,22.6110374 C31.1791785,22.616079 31.1801868,22.6211206 31.1806069,22.6260782 C31.1826236,22.6468327 31.183884,22.6672512 31.183884,22.6873335 C31.183884,23.1783006 30.5133522,24.0227673 28.6235113,24.7866526 C26.6108236,25.6001135 23.9077739,26.048227 21.0123034,26.048227 C18.1167489,26.048227 15.4136992,25.6001135 13.4010115,24.7864845 C11.5111706,24.0225152 10.8406388,23.1780485 10.8406388,22.6871655 C10.8406388,22.6833002 10.841143,22.679267 10.841227,22.6754017 C10.8414791,22.6591846 10.8422353,22.6427994 10.8439158,22.6261622 C10.8447561,22.6175915 10.8462686,22.6089368 10.847445,22.600282 C10.8492095,22.5877621 10.8509741,22.5750741 10.8534108,22.562302 C10.8552594,22.552807 10.8576122,22.5430599 10.8598809,22.5333969 C10.8627378,22.521129 10.8657627,22.5088611 10.8693759,22.4965092 C10.8722328,22.4864261 10.8754258,22.4763429 10.8787028,22.4662597 C10.8827361,22.4538238 10.8871895,22.4412198 10.891895,22.4286158 C10.8956762,22.4183646 10.8995414,22.4081133 10.9038268,22.3977781 C10.9092045,22.3847539 10.9151704,22.3714778 10.9212203,22.3582856 C10.9258417,22.3482024 10.9302951,22.3381192 10.9353367,22.327952 C10.942563,22.3131633 10.9507136,22.2982906 10.9587801,22.2834179 C10.9636537,22.2745952 10.968023,22.2657724 10.9731487,22.2567815 C10.9865929,22.2335062 11.0009614,22.2098947 11.0164223,22.1861992 C11.021632,22.1782167 11.0275138,22.1701502 11.0329756,22.1621676 C11.0441511,22.1456144 11.0554947,22.1289772 11.0676785,22.1123399 C11.0752409,22.1020046 11.0834755,22.0915013 11.091374,22.081082 C11.1024655,22.0664614 11.1137251,22.0518408 11.1255728,22.0372202 C11.1344796,22.0261287 11.1438906,22.0149532 11.1532175,22.0038616 C11.1653174,21.9894931 11.1775852,21.9751246 11.1903573,21.960672 C11.2002724,21.9494125 11.2104396,21.9380689 11.2208589,21.9268093 C11.2343872,21.9121047 11.2483356,21.897316 11.2625361,21.8826114 C11.2732074,21.8714358 11.2838788,21.8602603 11.2950543,21.8491688 C11.3105992,21.8334558 11.3269004,21.8178269 11.3432856,21.8020299 C11.354041,21.7916946 11.3645443,21.7813594 11.3757198,21.7709401 C11.3964744,21.751614 11.4182372,21.7320358 11.4402522,21.7125416 C11.4479826,21.7057355 11.4552089,21.6989293 11.4630234,21.6921232 C11.4927688,21.666159 11.5237746,21.6401948 11.5557887,21.6140625 C11.5669642,21.6049877 11.578812,21.5957448 11.5902396,21.5866699 C11.6121705,21.5691924 11.6341014,21.5517148 11.6570407,21.5341533 C11.6711571,21.5233139 11.6859458,21.5123904 11.7005664,21.501551 C11.7219092,21.48567 11.7434199,21.4696209 11.7655189,21.4536559 C11.7813159,21.4423123 11.797365,21.4309687 11.8134981,21.4196251 C11.8358491,21.4039122 11.8585363,21.3881992 11.8817276,21.3724022 C11.8984489,21.3610586 11.9151702,21.349715 11.9323116,21.3384555 C11.9565112,21.3224064 11.9812991,21.3062733 12.006339,21.2903083 C12.0233123,21.2793848 12.0402017,21.2684614 12.0575111,21.2575379 C12.085492,21.2399764 12.1142291,21.2224989 12.1432182,21.2049373 C12.1586791,21.1956104 12.1737198,21.1861994 12.1894328,21.1768725 C12.2341349,21.1503201 12.2797613,21.1237677 12.3268162,21.0972993 C12.3340425,21.093266 12.3416889,21.0891487 12.3489992,21.0851155 C12.389416,21.0624283 12.430505,21.0399092 12.4726863,21.0173901 C12.4910881,21.007475 12.5102461,20.9977279 12.5289841,20.9878127 C12.5609141,20.9710074 12.5930963,20.9542862 12.6259507,20.9374808 C12.6474615,20.9265574 12.6694764,20.915718 12.6914074,20.9047945 C12.7229173,20.8890816 12.7548474,20.8734526 12.7872816,20.8577397 C12.8103889,20.8466482 12.8337483,20.8354726 12.8572757,20.8244652 C12.8899621,20.8090043 12.9230685,20.7937114 12.9565951,20.7783346 C12.9806267,20.7673271 13.0047423,20.7563196 13.029194,20.7453122 C13.0640651,20.7296832 13.0996083,20.7142223 13.1354036,20.6986774 C13.1595192,20.6881741 13.1832987,20.6776708 13.2077504,20.6672515 C13.2488394,20.649858 13.2909367,20.6324645 13.333118,20.615155 C13.3531163,20.6069204 13.3726105,20.5986858 13.3927769,20.5904512 C13.4543683,20.5655794 13.5171362,20.5408756 13.5810803,20.5162558 C13.6029272,20.5078532 13.6256144,20.4996186 13.6477134,20.4912159 C13.6849371,20.4771835 13.722413,20.463151 13.760477,20.4492026 C13.7642582,20.4554206 13.7683755,20.4614705 13.7721567,20.4677725 C13.7897182,20.4965096 13.8081201,20.5246585 13.8260177,20.5531435 C13.858452,20.6046517 13.8910542,20.656076 13.9245808,20.7065759 C13.9453354,20.7379178 13.9666781,20.7687556 13.9878528,20.7997613 C14.019951,20.8467322 14.0523012,20.8933669 14.0854076,20.9394975 C14.1080108,20.9710074 14.130866,21.0022653 14.1538052,21.0333551 C14.1870797,21.0783093 14.2207744,21.1229274 14.2548892,21.1672094 C14.2784166,21.197543 14.301944,21.2279606 14.3258916,21.2579581 C14.3615188,21.3026602 14.3977343,21.3467741 14.4343698,21.390636 C14.4577292,21.4187008 14.4810046,21.4470178 14.5047841,21.4747465 C14.5450328,21.5218014 14.5862898,21.567932 14.6276309,21.6139785 C14.6487215,21.6373379 14.6693921,21.6612014 14.6906508,21.6843087 C14.7478729,21.7464884 14.8061873,21.8075757 14.8652579,21.8678227 C14.8713919,21.8740406 14.8772737,21.8805107 14.8834077,21.8868127 C14.9489484,21.9531096 15.0157495,22.0180621 15.0835589,22.0818383 C15.1045655,22.1016685 15.1262444,22.1208266 15.1475031,22.1404048 C15.19481,22.1840986 15.242369,22.2275403 15.2908524,22.2699737 C15.3174047,22.2933331 15.3445453,22.3161043 15.3714338,22.3390435 C15.4156318,22.3768555 15.4601658,22.4144153 15.5052041,22.451303 C15.5342772,22.4749985 15.5636025,22.4984419 15.5929278,22.5217172 C15.6372938,22.5569243 15.6819959,22.5917113 15.7270341,22.6259941 C15.7571996,22.6489334 15.7875332,22.6717046 15.8180349,22.6943077 C15.8639974,22.7281704 15.9104641,22.7615289 15.9571828,22.7944674 C15.9873483,22.8158101 16.0174298,22.8371528 16.0479315,22.8580754 C16.0980113,22.8923583 16.1486793,22.9258008 16.1995994,22.9589913 C16.2274962,22.9772251 16.2550569,22.9957949 16.2831218,23.0135245 C16.3455535,23.0532691 16.4087414,23.0918373 16.4723495,23.1298173 C16.489575,23.1401525 16.5064643,23.150992 16.5237738,23.1611592 C16.6050274,23.2089703 16.6872894,23.2554369 16.7703917,23.3006432 C16.7920705,23.3124069 16.8142535,23.3234984 16.8361004,23.3350941 C16.8978599,23.3679485 16.9597875,23.4004667 17.0225553,23.4318086 C17.0537291,23.4474376 17.0853231,23.4622263 17.116665,23.4775191 C17.1709462,23.5038194 17.2253954,23.5299516 17.2804327,23.5551596 C17.3150517,23.5709566 17.3498387,23.5864175 17.3847097,23.6017943 C17.4377304,23.6252377 17.4909192,23.648345 17.5445282,23.6707801 C17.5804915,23.6858209 17.6166229,23.7006095 17.6530064,23.7152302 C17.7068674,23.736909 17.7609805,23.7579156 17.8154297,23.7785862 C17.8515611,23.7922825 17.8876925,23.8059788 17.924076,23.819255 C17.980878,23.8399255 18.0381841,23.8596718 18.0956582,23.87925 C18.1301091,23.8910137 18.1643079,23.9030295 18.1989268,23.9143731 C18.2643835,23.9357158 18.3304284,23.9558822 18.3966413,23.9757965 C18.4236978,23.9840311 18.4504183,23.9926858 18.4776429,24.0005843 C18.5710804,24.0277249 18.6651901,24.053605 18.7600561,24.0778047 C18.7778697,24.0823421 18.7960194,24.0862914 18.813833,24.0906607 C18.8911375,24.1099028 18.968862,24.1285567 19.0470067,24.1458662 C19.0812895,24.1534286 19.1158244,24.1601507 19.1502753,24.167377 C19.2127911,24.1804011 19.2753908,24.1933412 19.3384107,24.2051049 C19.377231,24.2124152 19.4163874,24.2190533 19.4554597,24.2258594 C19.5149505,24.2361947 19.5746093,24.2461939 19.6346043,24.2555208 C19.6752731,24.2617388 19.71611,24.2677047 19.7570309,24.2734185 C19.8165217,24.2818211 19.8761806,24.2895516 19.9360915,24.2967778 C19.9770124,24.3018194 20.0180174,24.3066089 20.0591904,24.3111464 C20.1209499,24.3177845 20.1829615,24.3234983 20.2451411,24.329044 C20.2845496,24.3324891 20.323874,24.3362703 20.3634505,24.3392112 C20.4317641,24.3444209 20.5005818,24.3483701 20.5693995,24.3520673 C20.6030101,24.3539159 20.6363687,24.3563527 20.6700633,24.3577811 C20.7723236,24.3623185 20.875004,24.3655115 20.9782727,24.3667719 C20.9786088,24.3667719 20.9790289,24.3667719 20.979365,24.3667719 C20.9996994,24.367024 21.0197818,24.3663518 21.0399481,24.3664358 C21.0570055,24.3663518 21.0741469,24.3663518 21.0917925,24.3674442 C21.1310329,24.3674442 21.1701052,24.3660157 21.2093456,24.3655956 C21.2507707,24.3650914 21.2922798,24.3646713 21.3336209,24.363663 C21.4019345,24.3618984 21.47008,24.3590415 21.5381415,24.3559325 C21.5704077,24.354336 21.6026739,24.3531596 21.634856,24.351227 C21.7113202,24.3468577 21.7875323,24.3413119 21.8637443,24.3350939 C21.887944,24.3331613 21.9122276,24.3314808 21.9364273,24.3292961 C22.0196136,24.3219018 22.1025477,24.313163 22.1852299,24.303584 C22.2027074,24.3015674 22.2202689,24.2997188 22.2378305,24.2976181 C22.3263104,24.2868627 22.4143702,24.2747629 22.502178,24.2614867 C22.5143618,24.2596381 22.5265457,24.2580416 22.5387295,24.256193 C22.6308226,24.2419925 22.7224956,24.2262796 22.8137484,24.2092222 C22.821983,24.2076257 22.8303016,24.2063653 22.8386202,24.2047688 C22.9326459,24.1870392 23.0262515,24.1677971 23.1195209,24.1471266 C23.1253188,24.1458662 23.1312006,24.1447738 23.1369144,24.1434294 C23.2315283,24.1223387 23.325638,24.0996516 23.4193276,24.075704 C23.4239491,24.0744436 23.4284865,24.0734353 23.433108,24.0722589 C23.5268816,24.0480593 23.6202351,24.0222631 23.7129164,23.9951226 C23.7174538,23.9937781 23.7219912,23.9926018 23.7266127,23.9912573 C23.8182016,23.9642848 23.9092024,23.9357158 23.9996989,23.9058864 C24.0054127,23.9040378 24.0112106,23.9022732 24.0169244,23.9004247 C24.1059925,23.8708473 24.1942204,23.8398415 24.2820281,23.8075753 C24.2890023,23.8050545 24.2961446,23.8027018 24.3031188,23.800097 C24.3886578,23.768419 24.4732725,23.7353125 24.5575511,23.7010297 C24.56671,23.6973325 24.576037,23.6938874 24.5851959,23.6901062 C24.6674578,23.6564956 24.7487955,23.6212045 24.8297971,23.584989 C24.8405525,23.5801995 24.851476,23.5758301 24.8622314,23.5709566 C24.9429809,23.5344891 25.0229741,23.4965091 25.1023792,23.4576888 C25.1127985,23.4525632 25.1234699,23.4479417 25.1338051,23.4427321 C25.2206886,23.3997945 25.3068158,23.3554285 25.3920187,23.3096341 C25.3944555,23.3082896 25.3970603,23.3071133 25.399497,23.3057688 C25.4875569,23.2583779 25.5748604,23.2094744 25.6610717,23.1590585 C25.6672896,23.1554454 25.6732555,23.1514961 25.6794735,23.1477989 C25.7556855,23.1029288 25.8308893,23.0568822 25.9052528,23.0097433 C25.9325614,22.9925179 25.9595339,22.9747883 25.9865905,22.9571427 C26.0418799,22.9212634 26.0968333,22.8847959 26.1510304,22.8475721 C26.178255,22.8289182 26.2053956,22.8103484 26.2324521,22.7914424 C26.2945477,22.7477486 26.3559711,22.7032145 26.4165543,22.6580083 C26.4323513,22.6462445 26.4484003,22.634985 26.4639452,22.6231372 C26.539065,22.5663353 26.6127562,22.5081889 26.6854392,22.4490343 C26.7062778,22.4320609 26.7266122,22.4146674 26.7472827,22.397526 C26.8008076,22.3530759 26.8537444,22.3081217 26.9059248,22.2624113 C26.9292002,22.2419088 26.9524755,22.2213223 26.9755828,22.2006518 C27.0290237,22.1526726 27.0817084,22.1039373 27.1337208,22.0546137 C27.1507782,22.0384806 27.1681717,22.0225996 27.185061,22.0062984 C27.2530385,21.9407577 27.3197555,21.8740406 27.3852122,21.8061472 C27.3978162,21.7931231 27.4100841,21.7795948 27.42252,21.7663186 C27.4756248,21.710525 27.5278893,21.6539751 27.5791455,21.596669 C27.5982195,21.5754103 27.6169574,21.5539836 27.6357794,21.5325568 C27.6828342,21.4788638 27.7290488,21.4244987 27.7745912,21.3695453 C27.7903882,21.3505553 27.8062692,21.3318174 27.8218981,21.3126593 C27.8822292,21.2383799 27.9415519,21.1633442 27.9991101,21.086796 C28.0004545,21.0850314 28.0016309,21.0833509 28.0028913,21.0815864 C28.0586009,21.007559 28.11263,20.9322712 28.1657347,20.8561432 C28.1801033,20.8356407 28.1940517,20.8148021 28.2082522,20.7941316 C28.2495932,20.7335484 28.290178,20.6724611 28.3298386,20.6107016 C28.3431988,20.589779 28.3567271,20.5689404 28.3700873,20.5479338 C28.3800024,20.5320528 28.3905057,20.5165079 28.4004209,20.5005428 C28.4289899,20.5113823 28.4576429,20.5223057 28.4857078,20.5333132 C28.5074707,20.5417999 28.5294856,20.5501185 28.5509124,20.5586892 C28.5996478,20.5779313 28.6474589,20.5975095 28.6948498,20.6169196 C28.7085462,20.6225494 28.7226626,20.6281792 28.7362749,20.6338089 C28.7973622,20.659269 28.8571891,20.684813 28.9159237,20.7106092 C28.9261749,20.7154827 28.936006,20.7201042 28.9462572,20.7246416 Z M21.096414,3.21401511 C25.8122354,8.9609262 26.9872625,12.9585728 27.1168314,15.3469431 C27.1799354,16.5103746 27.0144871,17.5598661 26.6251922,18.4660923 C26.2236293,19.4008875 25.6225035,20.1099875 24.9239909,20.6312881 C23.7629962,21.4976018 22.3327805,21.8447994 21.1019597,21.8469841 C21.0984306,21.8469841 21.0949015,21.8469841 21.0913724,21.8469841 C21.0638957,21.8469841 21.0365871,21.8469841 21.0101187,21.8464799 C19.0567538,21.8218602 16.597213,20.9114326 15.5520909,18.430297 C15.5519228,18.4298769 15.5517548,18.4295407 15.5515867,18.4292046 C15.5041957,18.316525 15.4601658,18.2016608 15.419581,18.0846118 C15.134731,17.2630003 15.0196147,16.3357675 15.0772569,15.3225754 C15.2127917,12.936978 16.3920201,8.94622155 21.096414,3.21401511 Z M34.5025121,27.1631752 C30.9194525,28.6116246 26.1285953,29.4092886 21.0122194,29.4092886 C15.8958434,29.4092886 11.1049023,28.6116246 7.52192664,27.1631752 C4.39387068,25.8986598 2.52638086,24.2253553 2.52638086,22.6871655 C2.52638086,21.5406233 3.55419348,20.3115672 5.4204229,19.2261964 C7.2140534,18.1830909 9.72022894,17.3203904 12.582593,16.7514467 C12.5840214,16.7669076 12.5861221,16.7819484 12.5875506,16.7974093 C12.595365,16.8803434 12.6042718,16.9628575 12.6141029,17.0448674 C12.6168758,17.0682268 12.6192286,17.0919223 12.6221695,17.1151136 C12.6353617,17.2193065 12.6503184,17.3228272 12.6668716,17.4255076 C12.6710729,17.4518079 12.6759465,17.4777721 12.6804839,17.5039884 C12.693592,17.5814609 12.7075405,17.6585132 12.7224972,17.7350614 C12.7292193,17.7692602 12.7361935,17.803375 12.7432517,17.8373217 C12.7582085,17.9092484 12.7741735,17.980839 12.7908108,18.0520935 C12.7957683,18.0731842 12.7998016,18.094779 12.8049272,18.1158697 C12.7952642,18.1194828 12.7858532,18.123348 12.7762742,18.1269612 C12.7422434,18.1398172 12.7089689,18.1530094 12.6753583,18.1660335 C12.6136828,18.189813 12.5523434,18.2137606 12.4918443,18.2381283 C12.4556289,18.2526649 12.4200016,18.2675376 12.3842063,18.2822422 C12.3274044,18.3056016 12.2709386,18.3292971 12.215229,18.3531606 C12.1792656,18.3687055 12.1435543,18.3841664 12.1080111,18.3998794 C12.0532258,18.423995 11.9990287,18.4482787 11.9453357,18.4728984 C11.9110529,18.4886114 11.8768541,18.5041563 11.8429914,18.5200373 C11.7881221,18.5458335 11.734093,18.5717977 11.6804,18.598014 C11.6495623,18.6131387 11.6183885,18.6280114 11.5878868,18.6432202 C11.528396,18.6729656 11.4699976,18.7031312 11.4119352,18.7333807 C11.388828,18.7454805 11.3652165,18.7572442 11.3424453,18.7694281 C11.1810303,18.8552192 11.0256653,18.9431109 10.8764341,19.0333555 C10.8541671,19.0467997 10.8326563,19.060496 10.8107254,19.0740243 C10.7592171,19.1057023 10.7079609,19.1375484 10.6579651,19.1698986 C10.632169,19.1864518 10.607045,19.2032571 10.581669,19.2201464 C10.5365468,19.2498918 10.4918446,19.2798053 10.4479828,19.3099708 C10.4219346,19.3279525 10.3963905,19.3460182 10.3707624,19.3640839 C10.3286651,19.3938293 10.287072,19.4239108 10.2461511,19.4540763 C10.2213632,19.4723941 10.1965754,19.4907119 10.1722077,19.5091137 C10.1312868,19.5402035 10.0911221,19.5714614 10.0514616,19.6028873 C10.0290265,19.620701 10.0063393,19.6384306 9.98432436,19.6563282 C9.94222706,19.690611 9.90122211,19.7251459 9.86063729,19.7598489 C9.84265561,19.7752258 9.82416977,19.7904346 9.8065242,19.8058954 C9.75434372,19.8515219 9.70359169,19.8975684 9.65401603,19.9439511 C9.64889041,19.9487406 9.64351271,19.953362 9.63847112,19.9581515 C9.58334971,20.0100799 9.53007689,20.0625125 9.47831654,20.1153652 C9.46638477,20.127549 9.45520924,20.1399009 9.44344553,20.1521688 C9.40487734,20.1923335 9.36681332,20.2325822 9.33009373,20.2732511 C9.31396063,20.2911487 9.29858377,20.3092984 9.28278678,20.3272801 C9.25169696,20.3628233 9.22102728,20.3983666 9.19136591,20.4341619 C9.17489671,20.4541602 9.15884764,20.4743266 9.14279857,20.4944089 C9.11523787,20.5288598 9.08826535,20.5634787 9.06204907,20.5982657 C9.04642013,20.6190203 9.03104327,20.6398588 9.0159185,20.6606974 C8.99045846,20.6958205 8.96575465,20.7311957 8.94163904,20.7666549 C8.92769063,20.7870733 8.9136582,20.8074918 8.90021395,20.8280783 C8.8756782,20.8654701 8.85231883,20.903198 8.82937958,20.9409259 C8.81795197,20.9596639 8.80610423,20.9783177 8.79509675,20.9972237 C8.76888047,21.0418418 8.74417667,21.08688 8.72006105,21.1320023 C8.71367504,21.1440181 8.70670083,21.1558658 8.70048287,21.1679656 C8.67023332,21.226112 8.64174832,21.2846785 8.61502788,21.3436651 C8.61166682,21.3508914 8.60897797,21.3582858 8.60570093,21.365512 C8.5830978,21.4163481 8.561587,21.4675203 8.54167271,21.5188605 C8.53453046,21.5372623 8.52822847,21.5556641 8.52150634,21.5740659 C8.50646559,21.6147347 8.491929,21.6554876 8.47856878,21.6964926 C8.47159458,21.7180034 8.46520856,21.7396822 8.45865449,21.761277 C8.44705883,21.7995931 8.4358833,21.8380773 8.42580012,21.8767295 C8.41983423,21.8995007 8.41420445,21.9223559 8.4086587,21.9451271 C8.39949981,21.9833592 8.39118118,22.0216753 8.38336671,22.0601594 C8.37874525,22.0830146 8.37420782,22.1058699 8.37009052,22.1288091 C8.36303229,22.1684696 8.35698238,22.2082982 8.35143663,22.2482949 C8.34841167,22.2699737 8.34505061,22.2915685 8.34252982,22.3133314 C8.33723614,22.3576974 8.33345495,22.4023995 8.33009389,22.4471016 C8.32874946,22.4643271 8.32681685,22.4815525 8.32589256,22.498862 C8.32219539,22.5613777 8.3200107,22.6240615 8.3200107,22.6871655 C8.3200107,24.4697045 9.78896265,26.0452861 12.4563851,27.1235987 C14.7619893,28.055705 17.800641,28.5690232 21.0123034,28.5690232 L21.0123034,28.5690232 L21.0123034,28.5690232 C24.2239658,28.5690232 27.2625335,28.055705 29.5683057,27.1235987 C32.2356442,26.0452861 33.7046801,24.4697045 33.7046801,22.6871655 C33.7046801,21.8931987 33.400252,20.7086766 31.950038,19.5749905 C31.8734898,19.5150796 31.7938326,19.456345 31.712747,19.3981987 C31.6926647,19.3837461 31.6724143,19.3693776 31.6519118,19.3550931 C31.5780525,19.3030806 31.5026807,19.2516564 31.4252082,19.2009884 C31.4158812,19.1949385 31.4068064,19.1886365 31.3974794,19.1825026 C31.3111842,19.1266249 31.2222001,19.0717556 31.1315354,19.0174744 C31.1098566,19.0045343 31.0878416,18.9916783 31.0659947,18.9789063 C30.9879341,18.9330278 30.908445,18.8878215 30.8272753,18.8432874 C30.810302,18.8339605 30.7938328,18.8244655 30.7766073,18.8152226 C30.6807331,18.7632942 30.5825901,18.712206 30.4825145,18.6620422 C30.4609196,18.6512028 30.4389047,18.6406154 30.4172258,18.629944 C30.3324431,18.5880988 30.2462318,18.5468418 30.1584241,18.5061729 C30.1355689,18.4955856 30.1128817,18.4848302 30.0897744,18.4743269 C29.9843211,18.4262637 29.8770192,18.3790408 29.7673646,18.3326581 C29.7482906,18.3245916 29.7287124,18.3168612 29.7095543,18.3087946 C29.6153606,18.2695542 29.5194863,18.230986 29.4222676,18.193006 C29.4058824,18.18662 29.3902535,18.1798139 29.3737003,18.1734279 C29.379246,18.1508247 29.3838675,18.1277174 29.3893292,18.1051143 C29.4064706,18.0336917 29.4229398,17.9621011 29.4384007,17.8899223 C29.4461311,17.853959 29.4536935,17.8180796 29.4609198,17.7820322 C29.4761286,17.7067445 29.4902451,17.6311206 29.5035213,17.5550766 C29.5086469,17.5260034 29.5141926,17.4972663 29.5190662,17.4681091 C29.5360395,17.3654287 29.5515004,17.262076 29.5651967,17.1578831 C29.5688939,17.1300703 29.5717508,17.1019214 29.5751959,17.0739406 C29.5848589,16.9951237 29.5938498,16.9160547 29.6015802,16.8364816 C29.6033448,16.818836 29.6057816,16.8015266 29.6073781,16.783797 C32.4462147,17.3578663 34.8609693,18.2028371 36.6506506,19.2537571 C38.4867985,20.3319016 39.4980579,21.5512107 39.4980579,22.6871655 C39.4980579,24.2253553 37.6305681,25.8986598 34.5025121,27.1631752 Z" id="Shape"></path>
        </g>
        <path d="M70.8,38.45 C71.7666667,38.45 72.6333333,38.3416667 73.4,38.125 C74.1666667,37.9083333 74.825,37.6583333 75.375,37.375 C75.925,37.0916667 76.35,36.8166667 76.65,36.55 C76.95,36.2833333 77.1166667,36.1 77.15,36 L77.15,36 L77.15,38 L84.6,38 L84.6,34.05 L80.8,34.05 L80.8,0.5 L73.35,0.5 L73.35,4.45 L76.65,4.45 L76.65,19.9 C76.7166667,20.1666667 76.8,20.425 76.9,20.675 C77,20.925 77.0833333,21.1833333 77.15,21.45 C77.0833333,21.35 76.875,21.15 76.525,20.85 C76.175,20.55 75.7166667,20.25 75.15,19.95 C74.5833333,19.65 73.925,19.3833333 73.175,19.15 C72.425,18.9166667 71.6333333,18.8 70.8,18.8 C69.4,18.8 68.0833333,19.0583333 66.85,19.575 C65.6166667,20.0916667 64.55,20.8 63.65,21.7 C62.75,22.6 62.0416667,23.6416667 61.525,24.825 C61.0083333,26.0083333 60.75,27.2666667 60.75,28.6 C60.75,29.9333333 61.0083333,31.2 61.525,32.4 C62.0416667,33.6 62.75,34.65 63.65,35.55 C64.55,36.45 65.6166667,37.1583333 66.85,37.675 C68.0833333,38.1916667 69.4,38.45 70.8,38.45 Z M70.8,34.4 C69.0666667,34.4 67.6583333,33.8416667 66.575,32.725 C65.4916667,31.6083333 64.95,30.2333333 64.95,28.6 C64.95,26.9333333 65.4916667,25.5583333 66.575,24.475 C67.6583333,23.3916667 69.0666667,22.85 70.8,22.85 C72.5333333,22.85 73.9416667,23.3916667 75.025,24.475 C76.1083333,25.5583333 76.65,26.9333333 76.65,28.6 C76.65,30.2333333 76.1083333,31.6083333 75.025,32.725 C73.9416667,33.8416667 72.5333333,34.4 70.8,34.4 Z M101.085417,38 L101.085417,34.05 L97.9354167,34.05 L97.9354167,28.9 C97.9354167,27.1666667 98.5520833,25.7333333 99.7854167,24.6 C101.01875,23.4666667 102.652083,22.9 104.685417,22.9 L104.985417,18.8 C104.485417,18.8 98.2145833,19.95 97.5,22 L97.5794167,21.476 C97.53675,20.932 97.48875,20.34 97.4354167,19.7 L97.4354167,19.25 L90.4854167,19.25 L90.4854167,23.2 L93.7854167,23.2 L93.7854167,34.05 L89.9854167,34.05 L89.9854167,38 L101.085417,38 Z M116.020833,14.6 C116.654167,14.6 117.2375,14.3583333 117.770833,13.875 C118.304167,13.3916667 118.570833,12.7666667 118.570833,12 C118.570833,11.2333333 118.304167,10.6 117.770833,10.1 C117.2375,9.6 116.654167,9.35 116.020833,9.35 C115.354167,9.35 114.754167,9.6 114.220833,10.1 C113.6875,10.6 113.420833,11.2333333 113.420833,12 C113.420833,12.7666667 113.6875,13.3916667 114.220833,13.875 C114.754167,14.3583333 115.354167,14.6 116.020833,14.6 Z M121.470833,38 L121.470833,34.05 L118.020833,34.05 L118.020833,19.25 L110.370833,19.25 L110.370833,23.2 L113.870833,23.2 L113.870833,34.05 L110.370833,34.05 L110.370833,38 L121.470833,38 Z M138.45625,50.5 L138.45625,46.55 L134.85625,46.55 L134.85625,37.05 C134.789583,36.8833333 134.714583,36.725 134.63125,36.575 C134.547917,36.425 134.472917,36.2666667 134.40625,36.1 C134.50625,36.2333333 134.714583,36.425 135.03125,36.675 C135.347917,36.925 135.772917,37.1833333 136.30625,37.45 C136.839583,37.7166667 137.472917,37.95 138.20625,38.15 C138.939583,38.35 139.772917,38.45 140.70625,38.45 C142.10625,38.45 143.422917,38.1916667 144.65625,37.675 C145.889583,37.1583333 146.95625,36.45 147.85625,35.55 C148.75625,34.65 149.464583,33.6 149.98125,32.4 C150.497917,31.2 150.75625,29.9333333 150.75625,28.6 C150.75625,27.2666667 150.497917,26.0083333 149.98125,24.825 C149.464583,23.6416667 148.75625,22.6 147.85625,21.7 C146.95625,20.8 145.889583,20.0916667 144.65625,19.575 C143.422917,19.0583333 142.10625,18.8 140.70625,18.8 C139.839583,18.8 139.03125,18.925 138.28125,19.175 C137.53125,19.425 136.872917,19.7083333 136.30625,20.025 C135.739583,20.3416667 135.28125,20.6583333 134.93125,20.975 C134.58125,21.2916667 134.389583,21.5 134.35625,21.6 C134.289583,21.2333333 134.239583,20.8416667 134.20625,20.425 C134.172917,20.0083333 134.15625,19.6166667 134.15625,19.25 L134.15625,19.25 L126.85625,19.25 L126.85625,23.2 L130.70625,23.2 L130.70625,46.55 L127.35625,46.55 L127.35625,50.5 L138.45625,50.5 Z M140.70625,34.4 C138.972917,34.4 137.564583,33.8416667 136.48125,32.725 C135.397917,31.6083333 134.85625,30.2333333 134.85625,28.6 C134.85625,26.9333333 135.397917,25.5583333 136.48125,24.475 C137.564583,23.3916667 138.972917,22.85 140.70625,22.85 C142.439583,22.85 143.847917,23.3916667 144.93125,24.475 C146.014583,25.5583333 146.55625,26.9333333 146.55625,28.6 C146.55625,30.2333333 146.014583,31.6083333 144.93125,32.725 C143.847917,33.8416667 142.439583,34.4 140.70625,34.4 Z" id="drip" fill="#2A2F36" fill-rule="nonzero"></path>
    </g>
</svg>